<?xml version="1.0" standalone="no"?>
<!DOCTYPE svg PUBLIC "-//W3C//DTD SVG 20010904//EN"
 "http://www.w3.org/TR/2001/REC-SVG-20010904/DTD/svg10.dtd">
<svg version="1.0" xmlns="http://www.w3.org/2000/svg"
 width="512.000000pt" height="512.000000pt" viewBox="0 0 512.000000 512.000000"
 preserveAspectRatio="xMidYMid meet">

<g transform="translate(0.000000,512.000000) scale(0.100000,-0.100000)"
fill="#000000" stroke="none">
<path d="M2052 5100 c-84 -13 -188 -49 -253 -89 -75 -46 -720 -573 -766 -626
-45 -53 -90 -147 -103 -214 -15 -79 -14 -3743 1 -3813 37 -173 170 -304 344
-338 42 -8 194 -10 495 -8 l435 3 55 26 c32 16 123 85 215 164 194 167 355
301 986 822 267 221 508 426 535 456 222 245 239 621 40 894 -18 25 -309 273
-701 596 -368 303 -682 564 -697 578 l-28 26 0 672 0 671 -62 46 c-70 52 -179
105 -248 122 -66 16 -187 22 -248 12z m1015 -4022 c-3 -8 -6 -5 -6 6 -1 11 2
17 5 13 3 -3 4 -12 1 -19z"/>
</g>
</svg>
